<?xml version="1.0" encoding="UTF-8"?>
<!DOCTYPE svg PUBLIC "-//W3C//DTD SVG 1.1//EN" "http://www.w3.org/Graphics/SVG/1.1/DTD/svg11.dtd">
<!-- Creator: CorelDRAW 2020 (64 Bit) -->
<svg xmlns="http://www.w3.org/2000/svg" xml:space="preserve" width="90.9848mm" height="35.0666mm" version="1.1" style="shape-rendering:geometricPrecision; text-rendering:geometricPrecision; image-rendering:optimizeQuality; fill-rule:evenodd; clip-rule:evenodd"
viewBox="0 0 9016.78 3475.17"
 xmlns:xlink="http://www.w3.org/1999/xlink"
 xmlns:xodm="http://www.corel.com/coreldraw/odm/2003">
 <defs>
  <style type="text/css">
   <![CDATA[
    .fil2 {fill:black;fill-rule:nonzero}
    .fil0 {fill:url(#id0)}
    .fil1 {fill:url(#id1)}
   ]]>
  </style>
  <linearGradient id="id0" gradientUnits="userSpaceOnUse" x1="297.69" y1="1737.59" x2="2841.15" y2="1737.59">
   <stop offset="0" style="stop-opacity:1; stop-color:#FA4F2E"/>
   <stop offset="1" style="stop-opacity:1; stop-color:#D82474"/>
  </linearGradient>
  <linearGradient id="id1" gradientUnits="userSpaceOnUse" xlink:href="#id0" x1="0.01" y1="2178.96" x2="798.73" y2="2178.96">
  </linearGradient>
 </defs>
 <g id="Camada_x0020_1">
  <metadata id="CorelCorpID_0Corel-Layer"/>
  <g id="_2491340775136">
   <g>
    <path class="fil0" d="M973.95 0c940.93,0 267.66,1107.01 1110.52,1107.01 417.9,0 756.69,338.78 756.69,756.69 0,683.63 -1001.91,449.7 -1001.91,1184.08 0,236.04 -191.36,427.39 -427.39,427.39 -236.05,0 -427.4,-191.35 -427.4,-427.39 0,-634.76 744.74,-392.7 364.34,-1317.2 -215.93,-524.78 -1036.95,-372.09 -1050.97,-1054.46 -7.67,-373.34 302.71,-676.12 676.11,-676.12z"/>
    <path class="fil1" d="M399.37 1779.58c220.56,0 399.36,178.81 399.36,399.37 0,220.56 -178.8,399.36 -399.36,399.36 -220.57,0 -399.37,-178.8 -399.37,-399.36 0,-220.56 178.8,-399.37 399.37,-399.37z"/>
   </g>
   <path class="fil2" d="M4510.53 2028.32c0,13.68 -2.73,24.91 -8.5,33.42 -5.46,8.81 -13.67,13.06 -24.3,13.06l-145.82 0 0 261.25c0,3.34 -0.9,6.68 -2.73,9.72 -1.82,3.03 -4.87,5.47 -8.81,6.99 -4.26,1.82 -9.72,3.34 -16.71,4.56 -6.99,1.21 -15.8,1.81 -26.43,1.81 -10.03,0 -18.53,-0.6 -25.52,-1.81 -6.99,-1.22 -12.46,-2.74 -16.71,-4.56 -3.95,-1.52 -6.99,-3.95 -8.5,-6.99 -1.53,-3.04 -2.13,-6.38 -2.13,-9.72l0 -261.25 -493.94 0c-5.16,0 -10.02,-0.6 -14.27,-2.12 -3.95,-1.53 -7.9,-4.26 -10.94,-7.6 -3.34,-3.64 -5.78,-8.5 -7.29,-14.27 -1.52,-6.07 -2.12,-13.37 -2.12,-22.49 0,-7.59 0.31,-14.58 0.91,-20.65 0.6,-5.77 1.52,-11.55 3.04,-16.71 1.52,-5.47 3.64,-10.63 6.37,-15.8 2.43,-4.86 5.78,-10.63 9.11,-16.4l445.34 -737.58c2.74,-4.25 6.38,-7.9 10.93,-11.24 4.56,-3.04 10.03,-5.78 17.02,-7.9 6.69,-2.13 14.89,-3.65 24.31,-4.56 9.41,-0.91 20.35,-1.21 32.8,-1.21 13.97,0 26.12,0.6 36.76,1.81 10.94,1.22 20.05,2.74 27.04,4.87 7.29,2.12 12.75,4.86 16.71,8.5 3.95,3.34 5.77,7.29 5.77,11.55l0 758.83 145.82 0c10.02,0 17.93,3.95 24,11.55 5.77,7.9 8.8,19.44 8.8,34.93zm-286.16 -734.23l-1.81 0 -411.93 687.75 413.74 0 0 -687.75zm914.68 -107.54c0,8.2 -0.31,14.89 -1.22,20.05 -0.91,4.86 -2.12,9.11 -3.64,11.84 -1.53,3.03 -3.35,5.16 -5.47,6.38 -2.13,1.21 -4.56,1.81 -7.6,1.81 -4.56,0 -10.33,-1.52 -16.71,-4.55 -6.68,-3.04 -14.89,-6.07 -24.61,-9.72 -9.71,-3.65 -21.26,-6.99 -34.63,-9.72 -13.37,-3.04 -29.16,-4.56 -46.79,-4.56 -24.9,0 -46.16,3.95 -63.18,12.15 -17.32,7.91 -31.29,20.66 -41.92,38.27 -10.63,17.32 -18.23,40.11 -22.79,67.45 -4.55,27.64 -6.68,61.06 -6.68,100.24l0 95.39 198.37 0c3.94,0 7.59,0.92 10.62,2.74 3.04,1.82 5.78,4.56 8.21,8.2 2.13,3.95 3.94,8.82 5.17,14.28 1.21,5.47 1.81,12.15 1.81,19.75 0,14.89 -2.43,25.83 -7.28,33.42 -4.56,7.28 -10.94,10.93 -18.53,10.93l-198.37 0 0 735.15c0,3.34 -0.91,6.68 -2.73,9.72 -1.83,3.03 -4.56,5.47 -8.51,6.99 -3.65,1.82 -9.12,3.34 -16.4,4.56 -6.99,1.21 -15.5,1.81 -25.52,1.81 -10.34,0 -18.53,-0.6 -25.52,-1.81 -6.69,-1.22 -12.15,-2.74 -16.4,-4.56 -4.25,-1.52 -6.99,-3.95 -8.5,-6.99 -1.53,-3.04 -2.13,-6.38 -2.13,-9.72l0 -735.15 -121.82 0c-8.21,0 -14.58,-3.65 -19.14,-10.93 -4.56,-7.59 -6.69,-18.53 -6.69,-33.42 0,-7.6 0.61,-14.28 1.82,-19.75 1.22,-5.46 2.74,-10.33 4.87,-14.28 2.13,-3.64 4.86,-6.37 8.21,-8.2 3.03,-1.81 6.98,-2.74 10.93,-2.74l121.82 0 0 -91.74c0,-56.5 5.16,-104.5 15.18,-144.3 10.03,-40.09 25.22,-72.29 45.87,-97.2 20.36,-24.91 46.18,-43.14 76.85,-54.38 30.99,-11.24 66.83,-17.02 107.84,-17.02 20.05,0 39.8,1.82 58.63,5.78 19.15,3.94 33.42,8.21 43.14,12.46 9.72,4.55 16.4,8.5 19.75,11.84 3.03,3.03 5.77,7.29 7.89,11.85 2.13,4.86 3.65,10.33 4.56,16.7 0.91,6.07 1.22,13.06 1.22,20.97zm776.15 1149.49c0,3.64 -0.6,6.68 -2.12,9.72 -1.52,3.03 -4.26,5.47 -8.5,7.28 -4.25,1.53 -9.42,3.04 -16.1,4.26 -6.38,1.21 -14.28,1.81 -24,1.81 -10.63,0 -19.14,-0.6 -25.52,-1.81 -6.68,-1.22 -11.84,-2.74 -15.19,-4.26 -3.64,-1.81 -6.07,-4.25 -7.59,-7.28 -1.52,-3.04 -2.12,-6.08 -2.12,-9.72l0 -113.92c-46.48,51.33 -91.43,88.71 -135.79,111.48 -44.05,23.1 -88.09,34.64 -131.84,34.64 -52.86,0 -97.21,-8.81 -133.36,-26.73 -36.15,-17.63 -65.32,-41.93 -87.79,-72.3 -22.17,-30.68 -38.27,-65.92 -48,-106.32 -9.72,-40.11 -14.59,-88.71 -14.59,-145.82l0 -486.05c0,-3.65 0.61,-6.68 2.13,-9.72 1.53,-3.03 4.25,-5.47 8.5,-7.59 4.26,-2.13 9.72,-3.65 16.41,-4.56 6.98,-0.91 15.18,-1.21 25.52,-1.21 10.62,0 19.13,0.3 26.12,1.21 6.68,0.91 12.15,2.43 15.8,4.56 3.94,2.12 6.68,4.56 8.5,7.59 1.82,3.04 2.74,6.07 2.74,9.72l0 476.03c0,49.82 3.95,90.52 11.55,121.81 7.59,31.3 19.44,58.02 34.63,80.2 15.49,22.48 35.24,39.48 59.23,51.64 24,12.15 51.95,18.22 84.15,18.22 40.71,0 81.41,-14.59 122.12,-43.44 40.7,-28.86 83.84,-71.09 129.41,-127.29l0 -577.18c0,-3.65 0.6,-6.68 2.13,-9.72 1.52,-3.03 4.25,-5.47 8.5,-7.59 4.25,-2.13 9.72,-3.65 16.4,-4.56 6.99,-0.91 15.5,-1.21 26.43,-1.21 10.03,0 18.22,0.3 25.21,1.21 6.69,0.91 12.16,2.43 15.8,4.56 3.95,2.12 6.69,4.56 8.51,7.59 1.81,3.04 2.73,6.07 2.73,9.72l0 805.02zm684.42 -49.21c0,12.46 -0.92,22.78 -3.04,30.37 -2.12,7.91 -5.47,13.97 -10.02,18.53 -4.26,4.25 -10.94,8.5 -19.44,12.46 -8.5,3.65 -18.53,6.99 -29.77,9.72 -11.24,2.73 -23.39,4.86 -35.85,6.38 -12.46,1.52 -24.61,2.12 -36.45,2.12 -39.8,0 -73.52,-5.47 -101.47,-16.1 -27.94,-10.63 -50.73,-26.73 -68.65,-48.3 -17.62,-21.87 -30.68,-49.2 -38.58,-82.62 -8.21,-33.11 -12.15,-72.29 -12.15,-117.26l0 -501.24 -119.39 0c-8.21,0 -14.58,-3.65 -19.44,-10.93 -4.56,-7.59 -6.99,-18.53 -6.99,-33.42 0,-7.6 0.61,-14.28 1.82,-19.75 1.22,-5.46 3.03,-10.33 5.16,-14.28 2.43,-3.64 5.16,-6.37 8.5,-8.2 3.35,-1.81 7,-2.74 10.94,-2.74l119.39 0 0 -197.45c0,-3.65 0.6,-6.69 2.12,-9.72 1.52,-3.04 4.26,-5.47 8.51,-7.6 4.24,-2.12 9.71,-3.64 16.4,-4.55 6.99,-0.92 15.18,-1.22 25.51,-1.22 10.63,0 19.15,0.3 26.13,1.22 6.68,0.91 12.15,2.43 15.8,4.55 3.94,2.13 6.68,4.56 8.5,7.6 1.82,3.03 2.74,6.07 2.74,9.72l0 197.45 222.98 0c4.24,0 7.89,0.92 11.24,2.74 3.03,1.82 6.07,4.56 8.49,8.2 2.13,3.95 3.95,8.82 5.17,14.28 1.22,5.47 1.82,12.15 1.82,19.75 0,14.89 -2.44,25.83 -7.6,33.42 -5.16,7.28 -11.54,10.93 -19.13,10.93l-222.98 0 0 486.66c0,61.06 8.81,107.54 26.43,139.73 17.31,31.89 49.51,48 95.69,48 14.27,0 27.33,-1.52 38.88,-4.55 11.55,-2.75 21.87,-6.08 30.68,-9.72 9.12,-3.65 16.4,-6.69 22.78,-9.72 6.38,-3.04 11.84,-4.56 16.4,-4.56 3.04,0 5.78,0.6 8.21,1.81 2.43,1.23 4.25,3.35 5.77,6.69 1.53,3.34 2.74,7.59 3.65,12.46 0.91,5.16 1.22,11.55 1.22,19.14zm861.5 49.21c0,3.64 -0.6,6.68 -2.12,9.72 -1.52,3.03 -4.25,5.47 -8.5,7.28 -4.25,1.53 -9.41,3.04 -16.09,4.26 -6.39,1.21 -14.28,1.81 -24,1.81 -10.63,0 -19.15,-0.6 -25.52,-1.81 -6.69,-1.22 -11.85,-2.74 -15.19,-4.26 -3.65,-1.81 -6.07,-4.25 -7.59,-7.28 -1.52,-3.04 -2.13,-6.08 -2.13,-9.72l0 -113.92c-46.48,51.33 -91.43,88.71 -135.79,111.48 -44.05,23.1 -88.09,34.64 -131.84,34.64 -52.86,0 -97.21,-8.81 -133.36,-26.73 -36.15,-17.63 -65.31,-41.93 -87.78,-72.3 -22.18,-30.68 -38.28,-65.92 -48.01,-106.32 -9.72,-40.11 -14.58,-88.71 -14.58,-145.82l0 -486.05c0,-3.65 0.6,-6.68 2.13,-9.72 1.52,-3.03 4.24,-5.47 8.5,-7.59 4.25,-2.13 9.72,-3.65 16.4,-4.56 6.99,-0.91 15.19,-1.21 25.52,-1.21 10.63,0 19.14,0.3 26.12,1.21 6.68,0.91 12.15,2.43 15.8,4.56 3.94,2.12 6.68,4.56 8.5,7.59 1.82,3.04 2.74,6.07 2.74,9.72l0 476.03c0,49.82 3.95,90.52 11.55,121.81 7.59,31.3 19.44,58.02 34.63,80.2 15.49,22.48 35.24,39.48 59.23,51.64 24,12.15 51.95,18.22 84.16,18.22 40.7,0 81.41,-14.59 122.11,-43.44 40.7,-28.86 83.84,-71.09 129.42,-127.29l0 -577.18c0,-3.65 0.6,-6.68 2.12,-9.72 1.53,-3.03 4.25,-5.47 8.5,-7.59 4.26,-2.13 9.72,-3.65 16.41,-4.56 6.98,-0.91 15.49,-1.21 26.42,-1.21 10.03,0 18.22,0.3 25.21,1.21 6.69,0.91 12.16,2.43 15.8,4.56 3.95,2.12 6.69,4.56 8.51,7.59 1.81,3.04 2.73,6.07 2.73,9.72l0 805.02zm744.56 -765.52c0,8.81 -0.3,16.4 -0.9,22.78 -0.61,6.07 -1.53,11.24 -3.04,14.89 -1.52,3.94 -3.35,6.99 -5.47,9.12 -2.12,2.12 -4.86,3.03 -8.5,3.03 -5.16,0 -11.55,-1.22 -18.53,-3.94 -7.29,-2.75 -15.49,-5.47 -24.91,-8.51 -9.41,-3.03 -20.04,-5.77 -31.29,-8.5 -11.24,-2.74 -23.7,-3.94 -37.36,-3.94 -15.8,0 -31.59,3.34 -47.08,10.33 -15.5,6.99 -31.59,17.92 -48.61,33.11 -16.71,15.19 -34.64,35.55 -53.16,60.45 -18.84,25.21 -39.49,55.89 -61.98,92.34l0 544.38c0,3.64 -0.91,6.68 -2.73,9.72 -1.82,3.03 -4.56,5.47 -8.51,7.28 -3.64,1.53 -9.11,3.04 -15.8,4.26 -6.99,1.21 -15.49,1.81 -26.11,1.81 -10.34,0 -18.54,-0.6 -25.52,-1.81 -6.69,-1.22 -12.15,-2.74 -16.41,-4.26 -4.25,-1.81 -6.99,-4.25 -8.5,-7.28 -1.52,-3.04 -2.13,-6.08 -2.13,-9.72l0 -805.02c0,-3.65 0.61,-6.68 2.13,-9.72 1.52,-3.03 4.25,-5.47 8.5,-7.59 4.26,-2.13 9.42,-3.65 15.5,-4.56 6.37,-0.91 14.58,-1.21 24.6,-1.21 10.03,0 18.23,0.3 24.91,1.21 6.38,0.91 11.55,2.43 14.89,4.56 3.65,2.12 6.07,4.56 7.59,7.59 1.52,3.04 2.12,6.07 2.12,9.72l0 127.29c23.4,-34.03 44.67,-61.67 64.1,-82.63 19.75,-20.66 38.28,-37.06 56.21,-48.61 17.92,-11.84 35.23,-19.74 51.94,-23.69 17.02,-4.26 34.33,-6.38 52.25,-6.38 7.6,0 16.41,0.31 26.74,1.22 10.02,0.9 20.65,2.73 32.2,4.86 11.84,2.43 22.18,5.16 31.29,8.5 9.12,3.34 15.5,6.38 19.15,8.81 3.64,2.74 6.07,5.16 6.99,7.29 1.21,1.82 2.43,4.56 3.33,7.9 0.92,3.34 1.53,7.59 1.83,13.36 0.3,5.47 0.3,12.76 0.3,21.57zm811.09 320.49c0,21.56 -5.77,36.15 -17.01,44.05 -11.24,8.21 -22.18,12.15 -32.81,12.15l-548.01 0c0,49.82 4.87,94.78 14.58,135.19 9.72,40.39 26.12,74.72 48.6,103.58 22.49,28.86 51.65,50.73 87.8,66.22 36.14,15.5 80.5,23.09 133.36,23.09 37.35,0 70.78,-3.34 100.24,-10.02 29.77,-6.38 55.28,-13.68 76.85,-21.88 21.87,-8.2 39.49,-15.48 53.47,-21.87 13.97,-6.68 23.7,-10.02 29.77,-10.02 3.65,0 6.68,0.91 9.72,2.74 3.03,1.82 5.47,4.56 6.99,8.21 1.81,3.94 3.34,8.8 4.25,14.88 0.91,5.78 1.22,13.07 1.22,21.87 0,4.26 -0.31,8.21 -0.91,12.16 -0.61,3.64 -1.22,7.28 -2.13,10.63 -0.91,3.03 -2.43,6.37 -3.94,9.11 -1.83,3.04 -4.26,6.07 -7.29,8.81 -3.04,3.04 -12.15,8.21 -27.65,15.8 -15.19,7.59 -35.54,15.19 -60.45,22.78 -24.9,7.6 -53.76,14.58 -86.58,20.65 -33.11,6.07 -68.65,9.12 -106.62,9.12 -62.27,0 -117.26,-9.41 -165.25,-27.95 -48.3,-18.84 -88.71,-46.48 -121.21,-82.93 -32.5,-36.46 -57.41,-81.72 -74.43,-135.49 -16.71,-54.07 -25.21,-116.65 -25.21,-188.04 0,-68.04 8.81,-129.1 26.12,-183.18 17.62,-54.07 42.53,-99.94 75.34,-137.61 32.51,-37.67 72,-66.22 117.87,-86.27 45.86,-19.74 97.2,-29.77 153.41,-29.77 60.44,0 112.08,10.03 154.92,30.37 42.53,20.05 77.78,47.08 105.41,81.41 27.64,34.03 47.7,73.51 60.45,118.78 12.76,44.95 19.14,92.34 19.14,142.16l0 21.27zm-109.36 -31.29c1.82,-85.37 -17.93,-151.89 -58.63,-199.58 -40.7,-48.01 -100.24,-72 -178.62,-72 -40.1,0 -75.64,7.59 -106.02,22.48 -30.37,15.19 -56.2,35.24 -77.16,60.15 -20.96,24.61 -37.36,53.47 -48.6,86.58 -11.25,32.8 -17.62,66.83 -19.44,102.37l488.47 0z"/>
  </g>
 </g>
</svg>
