<?xml version="1.0" encoding="UTF-8"?>
<!DOCTYPE svg PUBLIC "-//W3C//DTD SVG 1.1//EN" "http://www.w3.org/Graphics/SVG/1.1/DTD/svg11.dtd">
<!-- Creator: CorelDRAW 2020 (64 Bit) -->
<svg xmlns="http://www.w3.org/2000/svg" xml:space="preserve" width="90.9848mm" height="35.0666mm" version="1.1" style="shape-rendering:geometricPrecision; text-rendering:geometricPrecision; image-rendering:optimizeQuality; fill-rule:evenodd; clip-rule:evenodd"
viewBox="0 0 8828.55 3402.63"
 xmlns:xlink="http://www.w3.org/1999/xlink"
 xmlns:xodm="http://www.corel.com/coreldraw/odm/2003">
 <defs>
  <style type="text/css">
   <![CDATA[
    .fil2 {fill:white;fill-rule:nonzero}
    .fil0 {fill:url(#id0)}
    .fil1 {fill:url(#id1)}
   ]]>
  </style>
  <linearGradient id="id0" gradientUnits="userSpaceOnUse" x1="291.48" y1="1701.31" x2="2781.84" y2="1701.31">
   <stop offset="0" style="stop-opacity:1; stop-color:#FA4F2E"/>
   <stop offset="1" style="stop-opacity:1; stop-color:#D82474"/>
  </linearGradient>
  <linearGradient id="id1" gradientUnits="userSpaceOnUse" xlink:href="#id0" x1="0.01" y1="2133.47" x2="782.06" y2="2133.47">
  </linearGradient>
 </defs>
 <g id="Camada_x0020_1">
  <metadata id="CorelCorpID_0Corel-Layer"/>
  <g id="_2491340777008">
   <g>
    <path class="fil0" d="M953.61 0c921.29,0 262.08,1083.9 1087.34,1083.9 409.18,0 740.9,331.71 740.9,740.9 0,669.35 -981,440.31 -981,1159.36 0,231.11 -187.36,418.47 -418.47,418.47 -231.12,0 -418.48,-187.35 -418.48,-418.47 0,-621.51 729.2,-384.5 356.73,-1289.71 -211.43,-513.82 -1015.31,-364.32 -1029.03,-1032.44 -7.51,-365.54 296.39,-662.01 662,-662.01z"/>
    <path class="fil1" d="M391.03 1742.43c215.96,0 391.02,175.08 391.02,391.03 0,215.96 -175.07,391.02 -391.02,391.02 -215.97,0 -391.03,-175.07 -391.03,-391.02 0,-215.96 175.07,-391.03 391.03,-391.03z"/>
   </g>
   <path class="fil2" d="M4416.37 1985.98c0,13.39 -2.67,24.39 -8.33,32.72 -5.35,8.63 -13.38,12.79 -23.79,12.79l-142.77 0 0 255.8c0,3.27 -0.88,6.54 -2.67,9.52 -1.79,2.97 -4.76,5.36 -8.63,6.84 -4.17,1.79 -9.52,3.27 -16.36,4.46 -6.84,1.18 -15.47,1.78 -25.88,1.78 -9.82,0 -18.15,-0.59 -24.99,-1.78 -6.84,-1.19 -12.2,-2.68 -16.36,-4.46 -3.87,-1.48 -6.84,-3.87 -8.33,-6.84 -1.49,-2.98 -2.09,-6.25 -2.09,-9.52l0 -255.8 -483.63 0c-5.06,0 -9.81,-0.59 -13.97,-2.08 -3.87,-1.49 -7.73,-4.17 -10.71,-7.44 -3.27,-3.56 -5.66,-8.33 -7.14,-13.97 -1.48,-5.95 -2.08,-13.09 -2.08,-22.02 0,-7.43 0.3,-14.27 0.89,-20.22 0.59,-5.65 1.48,-11.3 2.98,-16.36 1.48,-5.36 3.56,-10.41 6.24,-15.47 2.38,-4.75 5.66,-10.41 8.92,-16.06l436.05 -722.18c2.68,-4.16 6.25,-7.73 10.7,-11 4.46,-2.98 9.82,-5.66 16.66,-7.73 6.55,-2.09 14.57,-3.57 23.8,-4.46 9.22,-0.89 19.92,-1.18 32.12,-1.18 13.68,0 25.58,0.59 35.99,1.78 10.71,1.19 19.63,2.68 26.47,4.76 7.14,2.08 12.49,4.75 16.36,8.33 3.87,3.27 5.65,7.14 5.65,11.3l0 742.99 142.77 0c9.81,0 17.55,3.87 23.5,11.3 5.65,7.73 8.62,19.04 8.62,34.2zm-280.18 -718.9l-1.78 0 -403.33 673.39 405.1 0 0 -673.39zm895.59 -105.29c0,8.02 -0.3,14.57 -1.19,19.63 -0.89,4.75 -2.08,8.92 -3.56,11.6 -1.49,2.97 -3.28,5.06 -5.36,6.25 -2.09,1.18 -4.46,1.78 -7.44,1.78 -4.46,0 -10.11,-1.48 -16.36,-4.45 -6.54,-2.98 -14.57,-5.95 -24.09,-9.52 -9.51,-3.57 -20.81,-6.84 -33.9,-9.52 -13.09,-2.98 -28.55,-4.46 -45.81,-4.46 -24.38,0 -45.2,3.87 -61.86,11.9 -16.96,7.74 -30.63,20.23 -41.05,37.47 -10.41,16.96 -17.85,39.27 -22.32,66.04 -4.45,27.06 -6.54,59.78 -6.54,98.15l0 93.39 194.23 0c3.86,0 7.43,0.9 10.4,2.68 2.98,1.79 5.66,4.46 8.03,8.02 2.09,3.87 3.86,8.64 5.07,13.98 1.18,5.36 1.78,11.9 1.78,19.34 0,14.57 -2.38,25.29 -7.13,32.72 -4.46,7.13 -10.71,10.7 -18.15,10.7l-194.23 0 0 719.8c0,3.27 -0.89,6.54 -2.67,9.52 -1.8,2.97 -4.46,5.36 -8.34,6.84 -3.57,1.79 -8.93,3.27 -16.06,4.46 -6.84,1.18 -15.18,1.78 -24.99,1.78 -10.12,0 -18.15,-0.59 -24.99,-1.78 -6.55,-1.19 -11.9,-2.68 -16.06,-4.46 -4.16,-1.48 -6.84,-3.87 -8.33,-6.84 -1.49,-2.98 -2.09,-6.25 -2.09,-9.52l0 -719.8 -119.27 0c-8.03,0 -14.27,-3.57 -18.74,-10.7 -4.46,-7.43 -6.55,-18.15 -6.55,-32.72 0,-7.44 0.6,-13.98 1.79,-19.34 1.19,-5.35 2.68,-10.11 4.76,-13.98 2.09,-3.56 4.75,-6.24 8.03,-8.02 2.97,-1.78 6.83,-2.68 10.7,-2.68l119.27 0 0 -89.82c0,-55.32 5.06,-102.32 14.87,-141.29 9.82,-39.25 24.69,-70.79 44.92,-95.17 19.93,-24.39 45.22,-42.24 75.25,-53.24 30.34,-11 65.44,-16.66 105.59,-16.66 19.63,0 38.97,1.79 57.4,5.66 18.75,3.86 32.72,8.03 42.24,12.2 9.52,4.45 16.06,8.33 19.34,11.6 2.97,2.97 5.65,7.14 7.72,11.61 2.09,4.75 3.57,10.11 4.46,16.35 0.89,5.95 1.19,12.79 1.19,20.53zm759.95 1125.5c0,3.56 -0.59,6.54 -2.08,9.52 -1.48,2.97 -4.17,5.36 -8.33,7.13 -4.16,1.49 -9.23,2.98 -15.77,4.17 -6.25,1.18 -13.98,1.78 -23.5,1.78 -10.41,0 -18.74,-0.59 -24.99,-1.78 -6.54,-1.19 -11.6,-2.68 -14.88,-4.17 -3.56,-1.78 -5.94,-4.16 -7.43,-7.13 -1.48,-2.98 -2.08,-5.96 -2.08,-9.52l0 -111.54c-45.51,50.26 -89.52,86.85 -132.95,109.15 -43.13,22.62 -86.25,33.91 -129.08,33.91 -51.76,0 -95.18,-8.63 -130.58,-26.17 -35.4,-17.26 -63.95,-41.05 -85.96,-70.8 -21.71,-30.04 -37.47,-64.55 -46.99,-104.1 -9.52,-39.27 -14.28,-86.85 -14.28,-142.77l0 -475.9c0,-3.57 0.6,-6.54 2.09,-9.52 1.49,-2.97 4.16,-5.36 8.33,-7.43 4.17,-2.09 9.52,-3.57 16.07,-4.46 6.83,-0.89 14.87,-1.18 24.99,-1.18 10.4,0 18.73,0.29 25.58,1.18 6.54,0.89 11.9,2.38 15.47,4.46 3.86,2.08 6.54,4.46 8.33,7.43 1.79,2.98 2.68,5.95 2.68,9.52l0 466.09c0,48.78 3.87,88.63 11.3,119.26 7.43,30.64 19.04,56.81 33.9,78.53 15.17,22.01 34.51,38.66 58,50.56 23.5,11.9 50.86,17.84 82.39,17.84 39.86,0 79.71,-14.28 119.57,-42.53 39.85,-28.26 82.09,-69.6 126.71,-124.63l0 -565.13c0,-3.57 0.59,-6.54 2.09,-9.52 1.48,-2.97 4.16,-5.36 8.33,-7.43 4.16,-2.09 9.52,-3.57 16.06,-4.46 6.84,-0.89 15.18,-1.18 25.88,-1.18 9.82,0 17.84,0.29 24.69,1.18 6.55,0.89 11.91,2.38 15.47,4.46 3.87,2.08 6.55,4.46 8.34,7.43 1.78,2.98 2.67,5.95 2.67,9.52l0 788.21zm670.13 -48.19c0,12.2 -0.9,22.31 -2.98,29.74 -2.08,7.74 -5.36,13.68 -9.81,18.15 -4.17,4.16 -10.71,8.33 -19.04,12.2 -8.33,3.57 -18.15,6.84 -29.15,9.52 -11,2.67 -22.9,4.75 -35.1,6.25 -12.2,1.48 -24.09,2.08 -35.69,2.08 -38.97,0 -71.99,-5.36 -99.35,-15.77 -27.35,-10.41 -49.67,-26.17 -67.21,-47.29 -17.25,-21.42 -30.04,-48.18 -37.78,-80.9 -8.03,-32.42 -11.9,-70.79 -11.9,-114.81l0 -490.77 -116.9 0c-8.03,0 -14.27,-3.57 -19.04,-10.7 -4.46,-7.43 -6.84,-18.15 -6.84,-32.72 0,-7.44 0.6,-13.98 1.79,-19.34 1.19,-5.35 2.97,-10.11 5.06,-13.98 2.38,-3.56 5.06,-6.24 8.33,-8.02 3.28,-1.78 6.85,-2.68 10.71,-2.68l116.9 0 0 -193.33c0,-3.57 0.59,-6.55 2.08,-9.52 1.48,-2.98 4.17,-5.36 8.34,-7.44 4.15,-2.08 9.51,-3.56 16.06,-4.45 6.84,-0.9 14.87,-1.19 24.98,-1.19 10.41,0 18.75,0.29 25.59,1.19 6.54,0.89 11.9,2.38 15.47,4.45 3.86,2.09 6.54,4.46 8.33,7.44 1.79,2.97 2.68,5.95 2.68,9.52l0 193.33 218.32 0c4.15,0 7.72,0.9 11,2.68 2.97,1.79 5.95,4.46 8.32,8.02 2.09,3.87 3.87,8.64 5.07,13.98 1.19,5.36 1.79,11.9 1.79,19.34 0,14.57 -2.39,25.29 -7.44,32.72 -5.06,7.13 -11.29,10.7 -18.73,10.7l-218.32 0 0 476.5c0,59.78 8.63,105.29 25.88,136.82 16.95,31.23 48.48,46.99 93.7,46.99 13.97,0 26.76,-1.48 38.07,-4.45 11.3,-2.69 21.42,-5.96 30.04,-9.52 8.93,-3.57 16.06,-6.55 22.31,-9.52 6.25,-2.98 11.6,-4.46 16.06,-4.46 2.98,0 5.66,0.59 8.03,1.78 2.38,1.2 4.16,3.28 5.65,6.55 1.49,3.27 2.68,7.43 3.57,12.2 0.89,5.06 1.19,11.3 1.19,18.74zm843.52 48.19c0,3.56 -0.59,6.54 -2.08,9.52 -1.48,2.97 -4.16,5.36 -8.33,7.13 -4.16,1.49 -9.22,2.98 -15.76,4.17 -6.26,1.18 -13.98,1.78 -23.5,1.78 -10.41,0 -18.75,-0.59 -24.99,-1.78 -6.55,-1.19 -11.61,-2.68 -14.88,-4.17 -3.57,-1.78 -5.95,-4.16 -7.43,-7.13 -1.48,-2.98 -2.09,-5.96 -2.09,-9.52l0 -111.54c-45.51,50.26 -89.52,86.85 -132.95,109.15 -43.13,22.62 -86.25,33.91 -129.08,33.91 -51.76,0 -95.18,-8.63 -130.58,-26.17 -35.4,-17.26 -63.94,-41.05 -85.95,-70.8 -21.72,-30.04 -37.48,-64.55 -47,-104.1 -9.52,-39.27 -14.27,-86.85 -14.27,-142.77l0 -475.9c0,-3.57 0.59,-6.54 2.09,-9.52 1.48,-2.97 4.15,-5.36 8.33,-7.43 4.16,-2.09 9.52,-3.57 16.06,-4.46 6.84,-0.89 14.88,-1.18 24.99,-1.18 10.41,0 18.74,0.29 25.58,1.18 6.54,0.89 11.9,2.38 15.47,4.46 3.86,2.08 6.54,4.46 8.33,7.43 1.79,2.98 2.68,5.95 2.68,9.52l0 466.09c0,48.78 3.87,88.63 11.3,119.26 7.43,30.64 19.04,56.81 33.9,78.53 15.17,22.01 34.51,38.66 58,50.56 23.5,11.9 50.86,17.84 82.4,17.84 39.85,0 79.71,-14.28 119.56,-42.53 39.85,-28.26 82.09,-69.6 126.72,-124.63l0 -565.13c0,-3.57 0.59,-6.54 2.08,-9.52 1.49,-2.97 4.16,-5.36 8.33,-7.43 4.17,-2.09 9.52,-3.57 16.07,-4.46 6.83,-0.89 15.17,-1.18 25.87,-1.18 9.82,0 17.84,0.29 24.69,1.18 6.55,0.89 11.91,2.38 15.47,4.46 3.87,2.08 6.55,4.46 8.34,7.43 1.78,2.98 2.67,5.95 2.67,9.52l0 788.21zm729.02 -749.54c0,8.63 -0.29,16.06 -0.88,22.31 -0.6,5.95 -1.49,11 -2.98,14.57 -1.48,3.86 -3.28,6.84 -5.36,8.93 -2.08,2.08 -4.75,2.97 -8.33,2.97 -5.06,0 -11.3,-1.19 -18.15,-3.86 -7.14,-2.69 -15.17,-5.36 -24.39,-8.34 -9.22,-2.97 -19.62,-5.65 -30.63,-8.33 -11,-2.68 -23.2,-3.86 -36.58,-3.86 -15.47,0 -30.93,3.27 -46.1,10.11 -15.18,6.84 -30.93,17.54 -47.59,32.42 -16.36,14.88 -33.91,34.81 -52.05,59.19 -18.45,24.69 -38.67,54.73 -60.68,90.42l0 533.01c0,3.56 -0.89,6.54 -2.67,9.52 -1.79,2.97 -4.46,5.36 -8.34,7.13 -3.56,1.49 -8.92,2.98 -15.47,4.17 -6.84,1.18 -15.17,1.78 -25.57,1.78 -10.12,0 -18.15,-0.59 -24.99,-1.78 -6.55,-1.19 -11.9,-2.68 -16.07,-4.17 -4.16,-1.78 -6.84,-4.16 -8.33,-7.13 -1.48,-2.98 -2.09,-5.96 -2.09,-9.52l0 -788.21c0,-3.57 0.6,-6.54 2.09,-9.52 1.48,-2.97 4.16,-5.36 8.33,-7.43 4.17,-2.09 9.23,-3.57 15.18,-4.46 6.24,-0.89 14.27,-1.18 24.08,-1.18 9.82,0 17.85,0.29 24.39,1.18 6.25,0.89 11.3,2.38 14.57,4.46 3.57,2.08 5.95,4.46 7.43,7.43 1.48,2.98 2.08,5.95 2.08,9.52l0 124.63c22.91,-33.32 43.73,-60.38 62.76,-80.91 19.34,-20.23 37.48,-36.29 55.04,-47.59 17.54,-11.6 34.5,-19.33 50.86,-23.19 16.66,-4.17 33.61,-6.25 51.16,-6.25 7.44,0 16.07,0.3 26.18,1.19 9.81,0.88 20.22,2.67 31.53,4.75 11.6,2.38 21.72,5.06 30.63,8.33 8.93,3.27 15.18,6.25 18.75,8.63 3.56,2.68 5.95,5.06 6.84,7.14 1.18,1.79 2.38,4.46 3.26,7.73 0.9,3.27 1.49,7.43 1.8,13.08 0.29,5.36 0.29,12.5 0.29,21.12zm794.16 313.8c0,21.11 -5.65,35.4 -16.65,43.13 -11,8.03 -21.72,11.9 -32.13,11.9l-536.57 0c0,48.78 4.76,92.8 14.27,132.36 9.52,39.55 25.58,73.16 47.59,101.42 22.02,28.26 50.57,49.67 85.97,64.84 35.39,15.18 78.82,22.61 130.58,22.61 36.57,0 69.3,-3.27 98.15,-9.81 29.15,-6.25 54.13,-13.39 75.25,-21.42 21.42,-8.02 38.67,-15.16 52.35,-21.42 13.68,-6.54 23.2,-9.81 29.15,-9.81 3.57,0 6.54,0.89 9.52,2.68 2.97,1.79 5.36,4.46 6.84,8.03 1.78,3.86 3.27,8.62 4.16,14.56 0.89,5.66 1.19,12.8 1.19,21.42 0,4.17 -0.3,8.03 -0.89,11.91 -0.6,3.56 -1.19,7.13 -2.09,10.41 -0.89,2.97 -2.38,6.24 -3.86,8.92 -1.8,2.98 -4.17,5.95 -7.14,8.63 -2.98,2.98 -11.9,8.03 -27.07,15.47 -14.88,7.43 -34.8,14.88 -59.19,22.31 -24.38,7.44 -52.64,14.27 -84.77,20.22 -32.42,5.95 -67.21,8.93 -104.4,8.93 -60.97,0 -114.81,-9.22 -161.8,-27.36 -47.29,-18.45 -86.85,-45.51 -118.68,-81.2 -31.82,-35.7 -56.21,-80.01 -72.87,-132.66 -16.36,-52.94 -24.69,-114.22 -24.69,-184.11 0,-66.62 8.63,-126.41 25.58,-179.36 17.25,-52.94 41.65,-97.86 73.76,-134.74 31.83,-36.88 70.49,-64.84 115.41,-84.47 44.91,-19.33 95.17,-29.15 150.21,-29.15 59.18,0 109.74,9.82 151.68,29.74 41.65,19.63 76.15,46.1 103.21,79.71 27.06,33.32 46.7,71.98 59.19,116.3 12.5,44.01 18.74,90.42 18.74,139.19l0 20.82zm-107.08 -30.63c1.79,-83.58 -17.55,-148.72 -57.4,-195.42 -39.85,-47 -98.15,-70.49 -174.89,-70.49 -39.26,0 -74.07,7.43 -103.81,22.01 -29.74,14.88 -55.03,34.51 -75.55,58.9 -20.52,24.09 -36.58,52.35 -47.59,84.77 -11.01,32.12 -17.25,65.44 -19.04,100.24l478.28 0z"/>
  </g>
 </g>
</svg>
